<svg width="92" height="48" viewBox="0 0 92 48" fill="none" xmlns="http://www.w3.org/2000/svg">
<path d="M17.0614 27.6869C15.548 27.6869 14.3174 26.4616 14.3174 24.9511C14.3174 23.4406 15.548 22.2171 17.0614 22.2171C18.5803 22.2171 19.8091 23.4424 19.8091 24.9511C19.8109 26.4634 18.5803 27.6869 17.0614 27.6869ZM31.3257 28.0313L23.726 20.5936C21.8829 18.7906 19.4776 17.8219 17.0614 17.7986C14.6507 17.8237 12.2436 18.7906 10.4023 20.5936L2.79718 28.0313C-0.932394 31.682 -0.932394 37.5985 2.79718 41.2474L3.76471 42.1875C5.46914 43.8612 14.3715 47.6788 15.1696 47.9999V33.5567C15.1696 33.1154 14.8579 32.7172 14.4363 32.5539L9.69419 30.7097C9.29961 31.0398 8.79333 31.2389 8.23299 31.2389C6.98079 31.2389 5.95921 30.2236 5.95921 28.9714C5.95921 27.7192 6.98079 26.7056 8.23299 26.7056C9.40051 26.7056 10.35 27.5721 10.4924 28.6933L15.1102 30.4891C15.7354 30.733 16.3984 30.8586 17.0596 30.8676C17.7299 30.8586 18.3911 30.733 19.0181 30.4891L23.6305 28.6933C23.7675 27.5721 24.7278 26.7056 25.8899 26.7056C27.1457 26.7056 28.1673 27.7192 28.1673 28.9714C28.1673 30.2236 27.1457 31.2389 25.8899 31.2389C25.335 31.2389 24.8197 31.038 24.4287 30.7097L19.6866 32.5539C19.2686 32.7172 18.9587 33.1154 18.9587 33.5567V47.9999C19.7532 47.6788 28.6502 43.8612 30.3636 42.1875L31.3221 41.2474C35.0553 37.5967 35.0553 31.6803 31.3257 28.0313Z" fill="#7EBA34"/>
<path d="M43.7678 33.5029H45.3479V23.6612H43.7678V33.5029ZM87.7155 28.2753L92 33.5047H90.1226L86.2651 28.7597V27.8537L90.0524 23.663H91.8685L87.7155 28.2753ZM85.7102 33.5029H84.1247V23.6612H85.7102V33.5029ZM80.8401 26.6679C80.8401 26.1817 80.6888 25.7924 80.3879 25.5018C80.0816 25.2094 79.6294 25.0641 79.0204 25.0641H76.9827V28.3345H78.9772C79.5681 28.3345 80.0204 28.1838 80.3483 27.8824C80.6798 27.581 80.8401 27.1756 80.8401 26.6679ZM82.4239 26.6679C82.4239 27.3496 82.2275 27.9398 81.8383 28.4439C81.4473 28.9444 80.923 29.2978 80.2672 29.5024L82.6022 33.5029H80.8978L78.6997 29.7356H76.9808V33.5029H75.3953V23.6612H79.0186C79.5555 23.6612 80.0402 23.7384 80.4654 23.8944C80.887 24.0505 81.2473 24.2658 81.5356 24.5367C81.8239 24.8111 82.0419 25.1287 82.1932 25.4946C82.3482 25.8588 82.4239 26.2517 82.4239 26.6679ZM70.3973 27.6331L69.7217 25.2973H69.6947L69.0208 27.6331L68.2893 29.7212H71.1306L70.3973 27.6331ZM74.1233 33.5029H72.4801L71.6135 31.0792H67.7866L66.9344 33.5029H65.2967L68.9019 23.6612H70.5181L74.1233 33.5029ZM63.8625 26.7863C63.8625 26.2607 63.7021 25.8409 63.4048 25.5287C63.104 25.2184 62.6589 25.0623 62.0824 25.0623H60.2662V28.5677H61.9977C62.5797 28.5677 63.0373 28.4098 63.3688 28.0923C63.6931 27.7766 63.8625 27.3406 63.8625 26.7863ZM65.4426 26.7863C65.4426 27.233 65.3579 27.6492 65.1994 28.0349C65.039 28.4206 64.8084 28.7543 64.5075 29.0413C64.2138 29.3301 63.8499 29.5562 63.4247 29.7194C63.0031 29.8845 62.5274 29.967 61.9995 29.967H60.268V33.5011H58.6789V23.6594H62.0842C62.6121 23.6594 63.0823 23.7402 63.5003 23.9016C63.9183 24.0613 64.2679 24.2837 64.5525 24.5672C64.8462 24.8488 65.0678 25.1789 65.2192 25.5592C65.3669 25.9378 65.4426 26.3486 65.4426 26.7863ZM51.054 33.5029H49.4739V25.048L46.5713 25.0623V23.6594H53.9764V25.0623L51.0558 25.048V33.5029H51.054Z" fill="#323231"/>
<path d="M44.2369 40.7689H43.7678V37.2412H44.2369V38.9305L45.7888 37.2412H46.3727L45.0154 38.7119L46.4525 40.7689H45.8886L44.681 39.015L44.2369 39.4473V40.7689Z" fill="#323231"/>
<path d="M47.3606 40.7689H46.8915V37.2412H47.3606V40.7689Z" fill="#323231"/>
<path d="M49.465 40.7689H48.996V37.6685H47.9381V37.2412H50.523V37.6685H49.465V40.7689Z" fill="#323231"/>
<path d="M53.7291 38.1157L53.31 38.3094C53.1104 37.8291 52.7993 37.589 52.3768 37.589C52.2138 37.589 52.0674 37.6221 51.9377 37.6884C51.8079 37.7546 51.6965 37.849 51.6033 37.9716C51.5135 38.0941 51.4436 38.2432 51.3937 38.4188C51.3472 38.5943 51.3239 38.7914 51.3239 39.01C51.3239 39.2253 51.3472 39.4208 51.3937 39.5963C51.4436 39.7686 51.5135 39.916 51.6033 40.0385C51.6931 40.1611 51.8013 40.2555 51.9277 40.3217C52.0541 40.388 52.1972 40.4211 52.3568 40.4211C52.5698 40.4211 52.7577 40.3582 52.9207 40.2323C53.0837 40.1031 53.2151 39.9143 53.3149 39.6659L53.7391 39.8597C53.5994 40.181 53.4131 40.4244 53.1802 40.5901C52.9473 40.7557 52.6745 40.8385 52.3618 40.8385C52.1356 40.8385 51.9293 40.7954 51.7431 40.7093C51.5568 40.6232 51.3971 40.5006 51.264 40.3416C51.1343 40.1826 51.0328 39.9922 50.9596 39.7702C50.8897 39.545 50.8548 39.2949 50.8548 39.02C50.8548 38.7417 50.8914 38.4883 50.9646 38.2598C51.0378 38.0312 51.1409 37.8374 51.274 37.6784C51.4104 37.5161 51.5734 37.3919 51.763 37.3058C51.9526 37.2163 52.1639 37.1716 52.3968 37.1716C53.0155 37.1716 53.4597 37.4863 53.7291 38.1157Z" fill="#323231"/>
<path d="M54.8848 40.7689H54.4157V37.2412H54.8848V38.7119H56.6314V37.2412H57.1004V40.7689H56.6314V39.1293H54.8848V40.7689Z" fill="#323231"/>
<path d="M60.1447 40.3516V40.7689H57.9391V37.2412H60.0649V37.6586H58.4081V38.7417H59.9152V39.1491H58.4081V40.3516H60.1447Z" fill="#323231"/>
<path d="M61.3123 40.7689H60.8532V37.2412H61.3822L63.2186 39.964H63.2285V37.2412H63.6876V40.7689H63.2285L61.3223 37.9368H61.3123V40.7689Z" fill="#323231"/>
<path d="M10.3109 16.6323C9.42702 15.9675 9.20605 15.2473 9.20605 14.9703C9.20605 13.4009 10.258 12.0263 11.7728 11.6161L12.2688 11.4818C12.6797 11.3706 13.1052 11.3233 13.5305 11.3415L16.7556 11.4802L21.7127 12.2832C23.1896 12.5225 24.6301 12.9483 25.9997 13.5506L29.5272 15.1017C30.5626 15.557 31.4322 16.3208 32.0173 17.2889L32.8864 18.7271C33.1666 19.1906 33.2295 19.7537 33.0587 20.2677C32.8799 20.8057 32.4643 21.232 31.9311 21.4245L31.8548 21.452C31.4866 21.5628 30.5659 21.7844 29.8293 21.7844C29.664 21.7844 29.5079 21.8123 29.3632 21.8588C28.5559 22.1178 28.249 23.035 28.0389 23.8564L27.8075 24.7617C27.8051 24.7712 27.8038 24.7809 27.8038 24.7907C27.8038 24.8673 27.7315 24.9231 27.6574 24.9036C26.1421 24.5032 23.343 23.7413 23.2004 23.6126C23.0531 23.4796 18.7198 22.006 16.5715 21.2858C12.8293 20.2465 11.009 20.9209 10.5268 21.4174C10.5057 21.4391 10.4776 21.452 10.4474 21.452C10.3788 21.452 10.329 21.3867 10.3465 21.3203C10.7106 19.9444 11.1665 17.2759 10.3109 16.6323Z" fill="white" stroke="#7EBA34"/>
<path d="M34.5402 14.7945C34.5539 14.7502 34.5669 14.7049 34.5799 14.6596C35.1286 12.61 33.9274 10.5484 31.8431 9.7535C31.6754 9.68966 31.5365 9.51427 31.5269 9.35038C31.3805 6.89824 29.4795 4.72023 26.6995 4.11431C25.0801 3.76149 23.4573 4.007 22.1123 4.69291C21.9538 4.77378 21.7557 4.73072 21.6553 4.59357C20.8048 3.43295 19.4857 2.54718 17.868 2.19473C14.8517 1.53744 11.8186 2.95498 10.6076 5.42986C10.5344 5.57991 10.3346 5.69828 10.1535 5.70204C7.95609 5.75131 5.98122 7.12007 5.44134 9.1401C4.79576 11.5528 6.43984 13.9804 9.11235 14.5621C10.9073 14.9531 12.7099 14.4123 13.8955 13.2835C14.0209 13.1647 14.2515 13.1103 14.4236 13.161C14.5804 13.2075 14.7395 13.2487 14.9028 13.2842C16.5222 13.637 18.1459 13.3917 19.4898 12.7064C19.6483 12.6255 19.8464 12.6686 19.9468 12.8057C20.7971 13.9671 22.1166 14.8513 23.7342 15.2038C24.2799 15.3224 24.8254 15.3729 25.3613 15.3625C25.5434 15.3589 25.748 15.4706 25.8313 15.6165C26.4371 16.6708 27.5256 17.4907 28.9045 17.7904C28.9862 17.8081 29.0674 17.8241 29.1484 17.8376C29.2839 17.8604 29.3894 18.0061 29.4 18.1694C29.4962 19.5801 30.5948 20.8303 32.1971 21.1786C34.1632 21.6068 36.1411 20.5158 36.6164 18.7414C37.0152 17.25 36.2246 15.7514 34.7948 15.0565C34.6324 14.9797 34.5167 14.8691 34.5402 14.7945Z" fill="#7EBA34"/>
<path d="M31.1526 11.404C30.3335 14.4669 26.9535 16.3574 23.6035 15.6276C20.2527 14.8976 18.2008 11.8239 19.0198 8.76101C19.8395 5.6991 23.2189 3.80756 26.5687 4.53814C29.9197 5.26733 31.9714 8.34186 31.1526 11.404Z" fill="url(#paint0_linear_1_96)"/>
<path d="M14.9468 11.7174C14.3013 14.1301 11.6128 15.6134 8.93963 15.0307C6.26733 14.4482 4.62324 12.0207 5.26775 9.60857C5.91313 7.19661 8.60353 5.71288 11.275 6.2952C13.949 6.87808 15.5922 9.30541 14.9468 11.7174Z" fill="#7EBA34"/>
<path d="M14.2075 11.521C13.608 13.7615 11.1107 15.1387 8.62919 14.5978C6.14751 14.0576 4.62082 11.8034 5.22031 9.56294C5.8196 7.3232 8.3171 5.94524 10.7986 6.48615C13.2809 7.02724 14.8068 9.28125 14.2075 11.521Z" fill="url(#paint1_linear_1_96)"/>
<path d="M22.3655 9.68321C21.5464 12.7461 18.1326 14.6293 14.7391 13.8901C11.3465 13.151 9.25914 10.0696 10.0782 7.00667C10.8979 3.94476 14.3128 2.06093 17.7046 2.79981C21.0989 3.53926 23.1852 6.6213 22.3655 9.68321Z" fill="#7EBA34"/>
<path d="M22.3301 9.50193C21.5214 12.5263 18.1496 14.3857 14.7997 13.6559C11.4488 12.9259 9.38858 9.88342 10.1973 6.85905C11.0067 3.83564 14.3778 1.97531 17.7276 2.70586C21.0795 3.43523 23.1387 6.47834 22.3301 9.50193Z" fill="white"/>
<path d="M36.5829 19.0265C36.097 20.8442 34.0703 21.9627 32.0558 21.5232C30.0419 21.0846 28.8028 19.2546 29.2887 17.4369C29.7755 15.6194 31.8022 14.5008 33.8159 14.9402C35.8313 15.3799 37.0697 17.209 36.5829 19.0265Z" fill="#7EBA34"/>
<path d="M36.1819 18.8521C35.7076 20.6266 33.8137 21.7359 31.9524 21.3305C30.091 20.9251 28.9664 19.158 29.4417 17.3829C29.9167 15.6093 31.8099 14.4991 33.6713 14.9045C35.5326 15.3099 36.6563 17.0775 36.1819 18.8521Z" fill="url(#paint2_linear_1_96)"/>
<path d="M34.4461 15.1589C33.8361 17.4384 31.2952 18.8409 28.7688 18.2901C26.2434 17.7395 24.6897 15.4453 25.2988 13.1657C25.9088 10.8863 28.4507 9.48394 30.9761 10.0345C33.5033 10.5855 35.0562 12.8795 34.4461 15.1589Z" fill="#7EBA34"/>
<path d="M34.3772 14.719C33.7673 16.9985 31.3621 18.4305 29.0049 17.9165C26.6476 17.4033 25.2303 15.1387 25.8396 12.8583C26.4495 10.5789 28.8548 9.14686 31.2119 9.66086C33.5707 10.1752 34.9871 12.4396 34.3772 14.719Z" fill="url(#paint3_linear_1_96)"/>
<path d="M23.4694 11.7223C22.847 14.048 20.2545 15.4784 17.6778 14.9166C15.1019 14.3551 13.5163 12.015 14.1387 9.68927C14.7611 7.36358 17.3544 5.93343 19.9303 6.49497C22.507 7.0567 24.0917 9.39664 23.4694 11.7223Z" fill="#7EBA34"/>
<path d="M23.5531 11.4086C22.9307 13.7343 20.3382 15.1646 17.7615 14.6029C15.1846 14.042 13.5999 11.702 14.2224 9.37555C14.8446 7.05064 17.4382 5.61971 20.014 6.18125C22.5907 6.74298 24.1744 9.08352 23.5531 11.4086Z" fill="url(#paint4_linear_1_96)"/>
<path d="M29.0002 12.3127C28.2757 15.0211 25.2563 16.6872 22.2546 16.0331C19.2539 15.3792 17.408 12.6539 18.1324 9.94553C18.8569 7.23713 21.8772 5.57121 24.8771 6.22491C27.8796 6.87918 29.7246 9.60429 29.0002 12.3127Z" fill="#7EBA34"/>
<path d="M28.965 11.7443C28.2405 14.4527 25.2213 16.1181 22.2195 15.4648C19.2188 14.8109 17.3728 12.0856 18.0973 9.37717C18.8226 6.66895 21.8421 5.00285 24.8428 5.65674C27.8446 6.31004 29.6897 9.03514 28.965 11.7443Z" fill="#7EBA34"/>
<path d="M29.1013 11.8064C28.3823 14.4943 25.3849 16.1476 22.4077 15.4989C19.4296 14.8499 17.5976 12.1452 18.3166 9.45727C19.0363 6.77029 22.0331 5.116 25.0109 5.76573C27.9894 6.41313 29.8203 9.11841 29.1013 11.8064Z" fill="url(#paint5_linear_1_96)"/>
<path d="M10.6775 17.5861C12.5189 16.9213 17.1591 16.2232 20.9891 18.7494C24.8192 21.2757 27.7408 22.018 28.7229 22.0734" stroke="#7EBA34"/>
<defs>
<linearGradient id="paint0_linear_1_96" x1="19.0187" y1="8.7637" x2="31.0034" y2="11.9614" gradientUnits="userSpaceOnUse">
<stop stop-color="white"/>
<stop offset="1" stop-color="#F8F8F8"/>
</linearGradient>
<linearGradient id="paint1_linear_1_96" x1="5.21953" y1="9.56525" x2="14.0974" y2="11.934" gradientUnits="userSpaceOnUse">
<stop stop-color="white"/>
<stop offset="1" stop-color="#EAEAEA"/>
</linearGradient>
<linearGradient id="paint2_linear_1_96" x1="29.4411" y1="17.385" x2="36.0994" y2="19.1615" gradientUnits="userSpaceOnUse">
<stop stop-color="white"/>
<stop offset="1" stop-color="#EAEAEA"/>
</linearGradient>
<linearGradient id="paint3_linear_1_96" x1="25.8395" y1="12.8612" x2="34.2728" y2="15.1113" gradientUnits="userSpaceOnUse">
<stop stop-color="white"/>
<stop offset="1" stop-color="#F0F0F0"/>
</linearGradient>
<linearGradient id="paint4_linear_1_96" x1="14.2213" y1="9.37789" x2="23.4383" y2="11.8371" gradientUnits="userSpaceOnUse">
<stop stop-color="white"/>
<stop offset="1" stop-color="#F8F8F8"/>
</linearGradient>
<linearGradient id="paint5_linear_1_96" x1="18.3153" y1="9.45922" x2="28.9689" y2="12.3017" gradientUnits="userSpaceOnUse">
<stop stop-color="white"/>
<stop offset="1" stop-color="#F2F2F2"/>
</linearGradient>
</defs>
</svg>
